# xmcd
#
# Track frame offsets:
#	150
#	13192
#	27732
#	53952
#	69142
#	88115
#	109572
#	120090
#	127915
#	157815
#	176887
#
# Disc length: 2546 seconds
#
# Revision: 1
# Processed by: cddbd v1.5.1PL0 Copyright (c) Steve Scherf et al.
# Submitted via: CDex 1.50Beta5
#
DISCID=8409f00b
DTITLE=KATZE - Good Times Bad Times
DYEAR=1990
DGENRE=Pop
TTITLE0=90’s Pain
TTITLE1=Do!You Hot?
TTITLE2=耳をすまして
TTITLE3=Going to a go go
TTITLE4=Michelle
TTITLE5=Destiny
TTITLE6=Sweet Charly
TTITLE7=Angel
TTITLE8=Your Song
TTITLE9=Good Times Bad Times
TTITLE10=Small Island
EXTD=
EXTT0=
EXTT1=
EXTT2=
EXTT3=
EXTT4=
EXTT5=
EXTT6=
EXTT7=
EXTT8=
EXTT9=
EXTT10=
PLAYORDER=
